<svg width="254" height="90" viewBox="0 0 254 90" fill="none" xmlns="http://www.w3.org/2000/svg">
<rect width="70" height="90" fill="#C4B5FD"/>
<rect y="30.6" width="70" height="59.4" fill="#BEF264"/>
<path d="M59.5398 35.4489H48.9148C48.6117 33.7064 48.053 32.1629 47.2386 30.8182C46.4242 29.4545 45.411 28.2992 44.1989 27.3523C42.9867 26.4053 41.6042 25.6951 40.0511 25.2216C38.517 24.7292 36.8598 24.483 35.0795 24.483C31.9167 24.483 29.1136 25.2784 26.6705 26.8693C24.2273 28.4413 22.3144 30.7519 20.9318 33.8011C19.5492 36.8314 18.858 40.5341 18.858 44.9091C18.858 49.3598 19.5492 53.1098 20.9318 56.1591C22.3333 59.1894 24.2462 61.4811 26.6705 63.0341C29.1136 64.5682 31.9072 65.3352 35.0511 65.3352C36.7936 65.3352 38.4223 65.108 39.9375 64.6534C41.4716 64.1799 42.8447 63.4886 44.0568 62.5795C45.2879 61.6705 46.3201 60.553 47.1534 59.2273C48.0057 57.9015 48.5928 56.3864 48.9148 54.6818L59.5398 54.7386C59.142 57.5038 58.2803 60.0985 56.9545 62.5227C55.6477 64.947 53.9337 67.0871 51.8125 68.9432C49.6913 70.7803 47.2102 72.2197 44.3693 73.2614C41.5284 74.2841 38.375 74.7955 34.9091 74.7955C29.7955 74.7955 25.2311 73.6117 21.2159 71.2443C17.2008 68.8769 14.0379 65.4583 11.7273 60.9886C9.41667 56.5189 8.26136 51.1591 8.26136 44.9091C8.26136 38.6402 9.42614 33.2803 11.7557 28.8295C14.0852 24.3598 17.2576 20.9413 21.2727 18.5739C25.2879 16.2064 29.8333 15.0227 34.9091 15.0227C38.1477 15.0227 41.1591 15.4773 43.9432 16.3864C46.7273 17.2955 49.2083 18.6307 51.3864 20.392C53.5644 22.1345 55.3542 24.2746 56.7557 26.8125C58.1761 29.3314 59.1042 32.2102 59.5398 35.4489Z" fill="black"/>
<path d="M109.226 41.8977L99.8509 42.9205C99.5857 41.9735 99.1217 41.0833 98.4588 40.25C97.8149 39.4167 96.9437 38.7443 95.8452 38.233C94.7467 37.7216 93.402 37.4659 91.8111 37.4659C89.6709 37.4659 87.8717 37.9299 86.4134 38.858C84.974 39.786 84.2637 40.9886 84.2827 42.4659C84.2637 43.7348 84.7277 44.767 85.6747 45.5625C86.6406 46.358 88.2315 47.0114 90.4474 47.5227L97.8906 49.1136C102.019 50.0038 105.088 51.4148 107.095 53.3466C109.122 55.2784 110.144 57.8068 110.163 60.9318C110.144 63.678 109.339 66.1023 107.749 68.2045C106.177 70.2879 103.989 71.9167 101.186 73.0909C98.383 74.2652 95.1634 74.8523 91.527 74.8523C86.1861 74.8523 81.8868 73.7348 78.6293 71.5C75.3717 69.2462 73.4304 66.1117 72.8054 62.0966L82.8338 61.1307C83.2884 63.1004 84.2543 64.5871 85.7315 65.5909C87.2088 66.5947 89.1312 67.0966 91.4986 67.0966C93.9418 67.0966 95.902 66.5947 97.3793 65.5909C98.8755 64.5871 99.6236 63.3466 99.6236 61.8693C99.6236 60.6193 99.1406 59.5871 98.1747 58.7727C97.2277 57.9583 95.7505 57.3333 93.7429 56.8977L86.2997 55.3352C82.1141 54.464 79.0175 52.9962 77.0099 50.9318C75.0024 48.8485 74.008 46.2159 74.027 43.0341C74.008 40.3447 74.7372 38.0152 76.2145 36.0455C77.7107 34.0568 79.7846 32.5227 82.4361 31.4432C85.1065 30.3447 88.1842 29.7955 91.669 29.7955C96.7827 29.7955 100.807 30.8845 103.743 33.0625C106.697 35.2405 108.525 38.1856 109.226 41.8977ZM143.678 74.8523C139.416 74.8523 135.723 73.9148 132.598 72.0398C129.473 70.1648 127.049 67.5417 125.325 64.1705C123.621 60.7992 122.768 56.8598 122.768 52.3523C122.768 47.8447 123.621 43.8958 125.325 40.5057C127.049 37.1155 129.473 34.483 132.598 32.608C135.723 30.733 139.416 29.7955 143.678 29.7955C147.939 29.7955 151.632 30.733 154.757 32.608C157.882 34.483 160.297 37.1155 162.001 40.5057C163.725 43.8958 164.587 47.8447 164.587 52.3523C164.587 56.8598 163.725 60.7992 162.001 64.1705C160.297 67.5417 157.882 70.1648 154.757 72.0398C151.632 73.9148 147.939 74.8523 143.678 74.8523ZM143.734 66.6136C146.045 66.6136 147.977 65.9792 149.53 64.7102C151.083 63.4223 152.238 61.6989 152.996 59.5398C153.772 57.3807 154.161 54.9754 154.161 52.3239C154.161 49.6534 153.772 47.2386 152.996 45.0795C152.238 42.9015 151.083 41.1686 149.53 39.8807C147.977 38.5928 146.045 37.9489 143.734 37.9489C141.367 37.9489 139.397 38.5928 137.825 39.8807C136.272 41.1686 135.107 42.9015 134.331 45.0795C133.573 47.2386 133.195 49.6534 133.195 52.3239C133.195 54.9754 133.573 57.3807 134.331 59.5398C135.107 61.6989 136.272 63.4223 137.825 64.7102C139.397 65.9792 141.367 66.6136 143.734 66.6136ZM189.599 15.8182V74H179.315V15.8182H189.599Z" fill="white"/>
</svg>
