<svg width="248" height="77" viewBox="0 0 248 77" fill="none" xmlns="http://www.w3.org/2000/svg">
<path d="M55.5398 27.4489H44.9148C44.6117 25.7064 44.053 24.1629 43.2386 22.8182C42.4242 21.4545 41.411 20.2992 40.1989 19.3523C38.9867 18.4053 37.6042 17.6951 36.0511 17.2216C34.517 16.7292 32.8598 16.483 31.0795 16.483C27.9167 16.483 25.1136 17.2784 22.6705 18.8693C20.2273 20.4413 18.3144 22.7519 16.9318 25.8011C15.5492 28.8314 14.858 32.5341 14.858 36.9091C14.858 41.3598 15.5492 45.1098 16.9318 48.1591C18.3333 51.1894 20.2462 53.4811 22.6705 55.0341C25.1136 56.5682 27.9072 57.3352 31.0511 57.3352C32.7936 57.3352 34.4223 57.108 35.9375 56.6534C37.4716 56.1799 38.8447 55.4886 40.0568 54.5795C41.2879 53.6705 42.3201 52.553 43.1534 51.2273C44.0057 49.9015 44.5928 48.3864 44.9148 46.6818L55.5398 46.7386C55.142 49.5038 54.2803 52.0985 52.9545 54.5227C51.6477 56.947 49.9337 59.0871 47.8125 60.9432C45.6913 62.7803 43.2102 64.2197 40.3693 65.2614C37.5284 66.2841 34.375 66.7955 30.9091 66.7955C25.7955 66.7955 21.2311 65.6117 17.2159 63.2443C13.2008 60.8769 10.0379 57.4583 7.72727 52.9886C5.41667 48.5189 4.26136 43.1591 4.26136 36.9091C4.26136 30.6402 5.42614 25.2803 7.75568 20.8295C10.0852 16.3598 13.2576 12.9413 17.2727 10.5739C21.2879 8.20644 25.8333 7.02273 30.9091 7.02273C34.1477 7.02273 37.1591 7.47727 39.9432 8.38636C42.7273 9.29545 45.2083 10.6307 47.3864 12.392C49.5644 14.1345 51.3542 16.2746 52.7557 18.8125C54.1761 21.3314 55.1042 24.2102 55.5398 27.4489ZM102.811 23.8125C102.546 21.3314 101.429 19.3996 99.4588 18.017C97.5081 16.6345 94.9702 15.9432 91.8452 15.9432C89.6482 15.9432 87.7637 16.2746 86.1918 16.9375C84.6198 17.6004 83.4171 18.5 82.5838 19.6364C81.7505 20.7727 81.3243 22.0701 81.3054 23.5284C81.3054 24.7405 81.58 25.7917 82.1293 26.6818C82.6974 27.572 83.4645 28.3295 84.4304 28.9545C85.3963 29.5606 86.4664 30.072 87.6406 30.4886C88.8149 30.9053 89.9986 31.2557 91.1918 31.5398L96.6463 32.9034C98.8433 33.4148 100.955 34.1061 102.982 34.9773C105.027 35.8485 106.855 36.947 108.464 38.2727C110.093 39.5985 111.381 41.1989 112.328 43.0739C113.275 44.9489 113.749 47.1458 113.749 49.6648C113.749 53.0739 112.877 56.0758 111.135 58.6705C109.393 61.2462 106.874 63.2633 103.578 64.7216C100.302 66.161 96.3338 66.8807 91.6747 66.8807C87.1482 66.8807 83.2183 66.1799 79.8849 64.7784C76.5705 63.3769 73.9759 61.3314 72.1009 58.642C70.2448 55.9527 69.241 52.6761 69.0895 48.8125H79.4588C79.6103 50.839 80.2353 52.5246 81.3338 53.8693C82.4323 55.214 83.8622 56.2178 85.6236 56.8807C87.4039 57.5436 89.3925 57.875 91.5895 57.875C93.8812 57.875 95.8887 57.5341 97.6122 56.8523C99.3546 56.1515 100.718 55.1856 101.703 53.9545C102.688 52.7045 103.19 51.2462 103.209 49.5795C103.19 48.0644 102.745 46.8144 101.874 45.8295C101.002 44.8258 99.7808 43.9924 98.2088 43.3295C96.6558 42.6477 94.8376 42.0417 92.7543 41.5114L86.1349 39.8068C81.3433 38.5758 77.5554 36.7102 74.7713 34.2102C72.0062 31.6913 70.6236 28.3485 70.6236 24.1818C70.6236 20.7538 71.5516 17.7519 73.4077 15.1761C75.2827 12.6004 77.83 10.6023 81.0497 9.18182C84.2694 7.74242 87.9152 7.02273 91.9872 7.02273C96.116 7.02273 99.7334 7.74242 102.839 9.18182C105.964 10.6023 108.417 12.5814 110.197 15.1193C111.978 17.6383 112.896 20.536 112.953 23.8125H102.811ZM181.134 36.9091C181.134 43.178 179.959 48.5473 177.611 53.017C175.281 57.4678 172.099 60.8769 168.065 63.2443C164.05 65.6117 159.495 66.7955 154.401 66.7955C149.306 66.7955 144.741 65.6117 140.707 63.2443C136.692 60.858 133.51 57.4394 131.162 52.9886C128.832 48.5189 127.668 43.1591 127.668 36.9091C127.668 30.6402 128.832 25.2803 131.162 20.8295C133.51 16.3598 136.692 12.9413 140.707 10.5739C144.741 8.20644 149.306 7.02273 154.401 7.02273C159.495 7.02273 164.05 8.20644 168.065 10.5739C172.099 12.9413 175.281 16.3598 177.611 20.8295C179.959 25.2803 181.134 30.6402 181.134 36.9091ZM170.537 36.9091C170.537 32.4962 169.846 28.7746 168.463 25.7443C167.099 22.6951 165.205 20.3939 162.781 18.8409C160.357 17.2689 157.563 16.483 154.401 16.483C151.238 16.483 148.444 17.2689 146.02 18.8409C143.596 20.3939 141.692 22.6951 140.31 25.7443C138.946 28.7746 138.264 32.4962 138.264 36.9091C138.264 41.322 138.946 45.053 140.31 48.1023C141.692 51.1326 143.596 53.4337 146.02 55.0057C148.444 56.5587 151.238 57.3352 154.401 57.3352C157.563 57.3352 160.357 56.5587 162.781 55.0057C165.205 53.4337 167.099 51.1326 168.463 48.1023C169.846 45.053 170.537 41.322 170.537 36.9091ZM197.098 66V7.81818H207.638V57.1648H233.263V66H197.098Z" fill="white"/>
<rect x="9" y="71" width="40" height="6" fill="white"/>
</svg>
